<svg width="35" height="37" viewBox="0 0 35 37" fill="none" xmlns="http://www.w3.org/2000/svg">
<path d="M15.2097 1.27085C14.807 0.892891 14.1742 0.912948 13.7962 1.31565C13.4183 1.71835 13.4383 2.35119 13.841 2.72915L15.2097 1.27085ZM13.6827 31.7384C13.803 32.2775 14.3375 32.6169 14.8765 32.4966L23.6604 30.5362C24.1994 30.4159 24.5389 29.8814 24.4186 29.3424C24.2983 28.8034 23.7638 28.464 23.2248 28.5842L15.4168 30.3268L13.6743 22.5189C13.554 21.9799 13.0195 21.6404 12.4805 21.7607C11.9415 21.881 11.602 22.4155 11.7223 22.9545L13.6827 31.7384ZM13.841 2.72915C16.4838 5.20952 18.5932 8.90545 18.9998 13.6359C19.4063 18.3654 18.1165 24.2106 13.8145 30.9845L15.5028 32.0567C19.9888 24.9931 21.4439 18.7168 20.9924 13.4647C20.5411 8.21359 18.1899 4.06795 15.2097 1.27085L13.841 2.72915Z" fill="black"/>
</svg>
