<svg width="73" height="81" viewBox="0 0 73 81" fill="none" xmlns="http://www.w3.org/2000/svg">
<path d="M39.8134 1.1294C40.2942 0.857681 40.9043 1.02719 41.176 1.50801C41.4477 1.98883 41.2782 2.59888 40.7974 2.8706L39.8134 1.1294ZM40.9576 75.1926C41.0577 75.7357 40.6985 76.2571 40.1553 76.3572L31.3042 77.9875C30.7611 78.0876 30.2396 77.7284 30.1396 77.1852C30.0396 76.6421 30.3988 76.1207 30.9419 76.0206L38.8095 74.5714L37.3603 66.7038C37.2603 66.1606 37.6195 65.6392 38.1626 65.5392C38.7058 65.4391 39.2272 65.7983 39.3273 66.3415L40.9576 75.1926ZM40.7974 2.8706C27.6657 10.2916 20.2682 23.1466 19.8014 36.6557C19.335 50.1524 25.7869 64.3857 40.5415 74.5502L39.4068 76.1972C24.1267 65.6706 17.3112 50.8083 17.8026 36.5866C18.2936 22.3772 26.0791 8.89095 39.8134 1.1294L40.7974 2.8706Z" fill="#1A62A4"/>
</svg>
