<svg width="320" height="55" viewBox="0 0 320 55" fill="none" xmlns="http://www.w3.org/2000/svg">
    <path d="M8.90296 51.263L3.9325 50.8836C4.6534 40.5253 7.4232 33.3162 20.0201 24.9309C30.2266 18.1012 31.6305 3.18986 31.6684 3.03809L36.6389 3.53135C36.563 4.25225 34.9694 21.2505 22.6761 29.4461C11.6728 36.769 9.54798 42.0809 8.90296 51.263Z" fill="#1D1D1D" stroke="white" stroke-width="4.93252" stroke-miterlimit="10"/>
    <path d="M34.1348 3.26562C34.1348 3.26562 32.7309 19.5809 21.3481 27.1694C9.96539 34.7579 7.11971 40.8287 6.3988 51.0731" stroke="#1D1D1D" stroke-width="5.31195" stroke-miterlimit="10"/>
    <path d="M32.7308 51.2628C32.0858 42.0808 29.961 36.7309 18.9577 29.408C6.66434 21.2124 5.07076 4.21417 4.99487 3.49326L9.96533 3C9.96533 3.15177 11.4451 18.1391 21.6137 24.8928C34.2106 33.2781 36.9804 40.4872 37.7013 50.8455L32.7308 51.2628Z" fill="#1D1D1D" stroke="white" stroke-width="5.31195" stroke-miterlimit="10"/>
    <path d="M37.4988 50.6721L32.9063 51.0577C32.5772 46.5454 31.8734 42.9324 29.8924 39.5425C27.8845 36.1065 24.5758 32.919 19.0628 29.25C12.9632 25.1836 9.51053 18.9275 7.57309 13.583C5.80922 8.71725 5.30721 4.62356 5.2034 3.66321L9.79477 3.20757C9.79514 3.2109 9.79551 3.21426 9.79589 3.21765C9.8094 3.33912 9.83047 3.51285 9.86084 3.73318C9.9216 4.17387 10.0197 4.80158 10.1692 5.57121C10.4682 7.11022 10.9732 9.21841 11.7976 11.5343C13.4448 16.1616 16.3753 21.6414 21.5087 25.0508C27.7922 29.2335 31.6084 33.1122 33.9461 37.223C36.2551 41.2837 37.1313 45.5879 37.4988 50.6721Z" fill="#1D1D1D" stroke="#1D1D1D" stroke-width="0.379425"/>
    <path d="M42 3L0 3" stroke="#1FA9E5" stroke-width="5.31195" stroke-miterlimit="10"/>
    <path d="M21.0066 18.822C23.5212 18.822 25.5597 16.7835 25.5597 14.2689C25.5597 11.7543 23.5212 9.71582 21.0066 9.71582C18.492 9.71582 16.4535 11.7543 16.4535 14.2689C16.4535 16.7835 18.492 18.822 21.0066 18.822Z" fill="#1FA9E5"/>
    <path d="M68.54 17.5099C69.1 17.7299 69.58 18.0299 69.98 18.4099C70.4 18.7699 70.74 19.1799 71 19.6399C71.26 20.0799 71.45 20.5599 71.57 21.0799C71.69 21.5999 71.75 22.1099 71.75 22.6099C71.75 23.5699 71.56 24.4399 71.18 25.2199C70.82 25.9999 70.31 26.6699 69.65 27.2299C69.01 27.7899 68.25 28.2299 67.37 28.5499C66.51 28.8499 65.58 28.9999 64.58 28.9999H57.05C56.33 28.9999 55.85 28.8599 55.61 28.5799C55.37 28.2799 55.25 27.8099 55.25 27.1699V9.82992C55.25 9.18992 55.37 8.71992 55.61 8.41992C55.85 8.11992 56.33 7.96992 57.05 7.96992H64.4C65.3 7.96992 66.14 8.06992 66.92 8.26992C67.72 8.46992 68.41 8.78992 68.99 9.22992C69.57 9.64992 70.02 10.1999 70.34 10.8799C70.68 11.5399 70.85 12.3399 70.85 13.2799C70.85 14.1199 70.63 14.9099 70.19 15.6499C69.77 16.3699 69.22 16.9199 68.54 17.2999V17.5099ZM67.04 22.3099C67.04 21.5099 66.79 20.8599 66.29 20.3599C65.81 19.8599 65.09 19.6099 64.13 19.6099H59.81V24.9799H64.13C64.69 24.9799 65.16 24.8999 65.54 24.7399C65.92 24.5599 66.22 24.3399 66.44 24.0799C66.66 23.8199 66.81 23.5299 66.89 23.2099C66.99 22.8899 67.04 22.5899 67.04 22.3099ZM59.81 15.9499H63.89C64.13 15.9499 64.38 15.9199 64.64 15.8599C64.92 15.7999 65.17 15.6999 65.39 15.5599C65.61 15.3999 65.79 15.1899 65.93 14.9299C66.07 14.6499 66.14 14.2999 66.14 13.8799C66.14 13.2799 65.95 12.8099 65.57 12.4699C65.19 12.1299 64.68 11.9599 64.04 11.9599H59.81V15.9499Z" fill="black"/>
    <path d="M79.3006 28.3699C79.3006 28.6499 79.2506 28.8299 79.1506 28.9099C79.0706 28.9699 78.8806 28.9999 78.5806 28.9999H75.4306C75.1906 28.9999 75.0106 28.9599 74.8906 28.8799C74.7906 28.7799 74.7406 28.6099 74.7406 28.3699V9.79992C74.7406 9.23992 74.8606 8.79992 75.1006 8.47992C75.3406 8.13992 75.8206 7.96992 76.5406 7.96992H83.8906C84.9706 7.96992 85.9406 8.13992 86.8006 8.47992C87.6806 8.79992 88.4206 9.24992 89.0206 9.82992C89.6406 10.4099 90.1106 11.0999 90.4306 11.8999C90.7506 12.6999 90.9106 13.5799 90.9106 14.5399C90.9106 15.0599 90.8306 15.7099 90.6706 16.4899C90.5106 17.2499 90.1606 17.9999 89.6206 18.7399C89.1006 19.4599 88.3306 20.0799 87.3106 20.5999C86.3106 21.1199 84.9706 21.3799 83.2906 21.3799H79.3006V28.3699ZM86.2006 14.8399C86.2006 14.5599 86.1606 14.2599 86.0806 13.9399C86.0006 13.5999 85.8406 13.2899 85.6006 13.0099C85.3806 12.7099 85.0706 12.4699 84.6706 12.2899C84.2906 12.0899 83.8006 11.9899 83.2006 11.9899H79.3006V17.6899H83.2306C84.2506 17.6899 85.0006 17.4199 85.4806 16.8799C85.9606 16.3199 86.2006 15.6399 86.2006 14.8399Z" fill="black"/>
    <path d="M108.177 28.3099C108.177 28.5499 108.137 28.7299 108.057 28.8499C107.977 28.9499 107.817 28.9999 107.577 28.9999H98.6973C97.5773 28.9999 96.6573 28.8399 95.9373 28.5199C95.2373 28.1999 94.6773 27.7799 94.2573 27.2599C93.8373 26.7399 93.5473 26.1499 93.3873 25.4899C93.2273 24.8299 93.1473 24.1599 93.1473 23.4799V13.5199C93.1473 12.7999 93.2473 12.1099 93.4473 11.4499C93.6473 10.7899 93.9573 10.1999 94.3773 9.67992C94.8173 9.15992 95.3873 8.74992 96.0873 8.44992C96.7873 8.12992 97.6473 7.96992 98.6673 7.96992H107.277C107.517 7.96992 107.667 8.01992 107.727 8.11992C107.807 8.21992 107.847 8.40992 107.847 8.68992V11.2399C107.847 11.4999 107.807 11.6799 107.727 11.7799C107.647 11.8599 107.497 11.8999 107.277 11.8999H99.6573C98.8773 11.8999 98.3573 12.0799 98.0973 12.4399C97.8373 12.7999 97.7073 13.2399 97.7073 13.7599V16.0699H106.317C106.557 16.0699 106.707 16.1199 106.767 16.2199C106.847 16.3199 106.887 16.5099 106.887 16.7899V19.1299C106.887 19.3699 106.847 19.5499 106.767 19.6699C106.707 19.7699 106.557 19.8199 106.317 19.8199H97.7073V23.2399C97.7073 23.9399 97.8673 24.4199 98.1873 24.6799C98.5273 24.9199 99.0173 25.0399 99.6573 25.0399H107.577C107.837 25.0399 107.997 25.0899 108.057 25.1899C108.137 25.2699 108.177 25.4599 108.177 25.7599V28.3099Z" fill="black"/>
    <path d="M127.926 16.9099H127.746L126.516 19.6999L124.026 25.2199C123.806 25.7399 123.576 26.0899 123.336 26.2699C123.116 26.4499 122.776 26.5399 122.316 26.5399H120.666C120.166 26.5399 119.816 26.4499 119.616 26.2699C119.436 26.0899 119.226 25.7399 118.986 25.2199L117.126 21.3199L115.266 17.2699H115.086V28.3999C115.086 28.6799 115.036 28.8499 114.936 28.9099C114.836 28.9699 114.656 28.9999 114.396 28.9999H111.336C111.116 28.9999 110.946 28.9699 110.826 28.9099C110.706 28.8499 110.646 28.6799 110.646 28.3999V10.0699C110.646 9.30992 110.786 8.76992 111.066 8.44992C111.366 8.12992 111.866 7.96992 112.566 7.96992H114.306C114.866 7.96992 115.276 8.07992 115.536 8.29992C115.816 8.49992 116.076 8.85992 116.316 9.37992L119.586 16.6999L121.446 20.9599H121.566L123.606 16.2799L126.666 9.43992C126.906 8.89992 127.166 8.51992 127.446 8.29992C127.746 8.07992 128.216 7.96992 128.856 7.96992H130.326C130.966 7.96992 131.446 8.10992 131.766 8.38992C132.086 8.64992 132.246 9.15992 132.246 9.91992V28.3999C132.246 28.6799 132.196 28.8499 132.096 28.9099C131.996 28.9699 131.816 28.9999 131.556 28.9999H128.586C128.366 28.9999 128.196 28.9699 128.076 28.9099C127.976 28.8499 127.926 28.6799 127.926 28.3999V16.9099Z" fill="black"/>
    <path d="M146.949 20.5099H144.159C143.239 20.5099 142.529 20.6999 142.029 21.0799C141.529 21.4599 141.149 22.1399 140.889 23.1199C140.809 23.3999 140.709 23.7799 140.589 24.2599C140.469 24.7399 140.339 25.2399 140.199 25.7599C140.059 26.2799 139.929 26.7799 139.809 27.2599C139.689 27.7399 139.599 28.1199 139.539 28.3999C139.459 28.6999 139.289 28.8799 139.029 28.9399C138.789 28.9799 138.559 28.9999 138.339 28.9999H135.039C134.739 28.9999 134.589 28.8899 134.589 28.6699C134.589 28.5899 134.609 28.4699 134.649 28.3099L136.179 22.4899C136.359 21.7299 136.639 21.0899 137.019 20.5699C137.399 20.0499 138.029 19.6599 138.909 19.3999V19.3399C137.729 18.9399 136.879 18.2699 136.359 17.3299C135.839 16.3899 135.579 15.3499 135.579 14.2099C135.579 13.2899 135.729 12.4499 136.029 11.6899C136.349 10.9299 136.799 10.2799 137.379 9.73992C137.959 9.17992 138.679 8.74992 139.539 8.44992C140.399 8.14992 141.369 7.99992 142.449 7.99992H149.769C150.489 7.99992 150.969 8.15992 151.209 8.47992C151.449 8.77992 151.569 9.22992 151.569 9.82992V28.4899C151.569 28.7099 151.519 28.8499 151.419 28.9099C151.319 28.9699 151.159 28.9999 150.939 28.9999H147.609C147.329 28.9999 147.149 28.9699 147.069 28.9099C146.989 28.8499 146.949 28.7099 146.949 28.4899V20.5099ZM140.259 14.4199C140.259 15.1399 140.479 15.7199 140.919 16.1599C141.379 16.5999 142.059 16.8199 142.959 16.8199H146.949V12.0199H142.869C142.349 12.0199 141.919 12.0999 141.579 12.2599C141.239 12.3999 140.969 12.5899 140.769 12.8299C140.589 13.0699 140.459 13.3299 140.379 13.6099C140.299 13.8899 140.259 14.1599 140.259 14.4199Z" fill="black"/>
    <path d="M180.157 28.4299C180.157 28.6499 180.117 28.7999 180.037 28.8799C179.957 28.9599 179.777 28.9999 179.497 28.9999H176.227C175.807 28.9999 175.597 28.8099 175.597 28.4299V11.9599H167.497V28.4299C167.497 28.6499 167.457 28.7999 167.377 28.8799C167.297 28.9599 167.117 28.9999 166.837 28.9999H163.537C163.117 28.9999 162.907 28.8099 162.907 28.4299V10.0099C162.907 9.30992 163.047 8.79992 163.327 8.47992C163.627 8.13992 164.127 7.96992 164.827 7.96992H178.237C178.957 7.96992 179.457 8.13992 179.737 8.47992C180.017 8.79992 180.157 9.30992 180.157 10.0099V28.4299Z" fill="black"/>
    <path d="M201.745 18.4399C201.745 20.1599 201.555 21.6899 201.175 23.0299C200.815 24.3699 200.245 25.5099 199.465 26.4499C198.685 27.3899 197.705 28.1099 196.525 28.6099C195.345 29.0899 193.945 29.3299 192.325 29.3299C189.225 29.3299 186.915 28.3899 185.395 26.5099C183.895 24.6299 183.145 21.9699 183.145 18.5299C183.145 16.8499 183.355 15.3399 183.775 13.9999C184.215 12.6399 184.835 11.4999 185.635 10.5799C186.435 9.63992 187.405 8.91992 188.545 8.41992C189.685 7.91992 190.975 7.66992 192.415 7.66992C193.975 7.66992 195.335 7.91992 196.495 8.41992C197.675 8.91992 198.645 9.63992 199.405 10.5799C200.185 11.4999 200.765 12.6299 201.145 13.9699C201.545 15.2899 201.745 16.7799 201.745 18.4399ZM196.975 18.5299C196.975 17.6299 196.905 16.7699 196.765 15.9499C196.645 15.1299 196.415 14.4099 196.075 13.7899C195.735 13.1699 195.275 12.6799 194.695 12.3199C194.115 11.9399 193.365 11.7499 192.445 11.7499C191.685 11.7499 191.015 11.9299 190.435 12.2899C189.875 12.6299 189.405 13.0999 189.025 13.6999C188.645 14.2999 188.365 14.9999 188.185 15.7999C188.005 16.5999 187.915 17.4499 187.915 18.3499C187.915 19.4099 187.985 20.3599 188.125 21.1999C188.285 22.0399 188.535 22.7599 188.875 23.3599C189.235 23.9599 189.705 24.4199 190.285 24.7399C190.865 25.0599 191.595 25.2199 192.475 25.2199C193.335 25.2199 194.055 25.0399 194.635 24.6799C195.215 24.2999 195.675 23.8099 196.015 23.2099C196.355 22.5899 196.595 21.8799 196.735 21.0799C196.895 20.2599 196.975 19.4099 196.975 18.5299Z" fill="black"/>
    <path d="M219.399 11.2999C219.399 11.6999 219.199 11.8999 218.799 11.8999H213.369V28.3699C213.369 28.6299 213.319 28.7999 213.219 28.8799C213.139 28.9599 212.949 28.9999 212.649 28.9999H209.439C209.199 28.9999 209.019 28.9599 208.899 28.8799C208.799 28.7799 208.749 28.6099 208.749 28.3699V11.8999H203.439C203.059 11.8999 202.869 11.6999 202.869 11.2999V8.62992C202.869 8.36992 202.909 8.19992 202.989 8.11992C203.069 8.03992 203.219 7.99992 203.439 7.99992H218.799C219.039 7.99992 219.199 8.03992 219.279 8.11992C219.359 8.19992 219.399 8.36992 219.399 8.62992V11.2999Z" fill="black"/>
    <path d="M239.086 18.4399C239.086 20.1599 238.896 21.6899 238.516 23.0299C238.156 24.3699 237.586 25.5099 236.806 26.4499C236.026 27.3899 235.046 28.1099 233.866 28.6099C232.686 29.0899 231.286 29.3299 229.666 29.3299C226.566 29.3299 224.256 28.3899 222.736 26.5099C221.236 24.6299 220.486 21.9699 220.486 18.5299C220.486 16.8499 220.696 15.3399 221.116 13.9999C221.556 12.6399 222.176 11.4999 222.976 10.5799C223.776 9.63992 224.746 8.91992 225.886 8.41992C227.026 7.91992 228.316 7.66992 229.756 7.66992C231.316 7.66992 232.676 7.91992 233.836 8.41992C235.016 8.91992 235.986 9.63992 236.746 10.5799C237.526 11.4999 238.106 12.6299 238.486 13.9699C238.886 15.2899 239.086 16.7799 239.086 18.4399ZM234.316 18.5299C234.316 17.6299 234.246 16.7699 234.106 15.9499C233.986 15.1299 233.756 14.4099 233.416 13.7899C233.076 13.1699 232.616 12.6799 232.036 12.3199C231.456 11.9399 230.706 11.7499 229.786 11.7499C229.026 11.7499 228.356 11.9299 227.776 12.2899C227.216 12.6299 226.746 13.0999 226.366 13.6999C225.986 14.2999 225.706 14.9999 225.526 15.7999C225.346 16.5999 225.256 17.4499 225.256 18.3499C225.256 19.4099 225.326 20.3599 225.466 21.1999C225.626 22.0399 225.876 22.7599 226.216 23.3599C226.576 23.9599 227.046 24.4199 227.626 24.7399C228.206 25.0599 228.936 25.2199 229.816 25.2199C230.676 25.2199 231.396 25.0399 231.976 24.6799C232.556 24.2999 233.016 23.8099 233.356 23.2099C233.696 22.5899 233.936 21.8799 234.076 21.0799C234.236 20.2599 234.316 19.4099 234.316 18.5299Z" fill="black"/>
    <path d="M244.77 10.0099C244.81 9.30992 244.96 8.79992 245.22 8.47992C245.48 8.15992 245.97 7.99992 246.69 7.99992H257.46C258.18 7.99992 258.68 8.16992 258.96 8.50992C259.24 8.82992 259.38 9.32992 259.38 10.0099V28.4599C259.38 28.6799 259.34 28.8299 259.26 28.9099C259.2 28.9699 259.03 28.9999 258.75 28.9999H255.42C255.2 28.9999 255.04 28.9699 254.94 28.9099C254.86 28.8299 254.82 28.6799 254.82 28.4599V11.9599H248.97L248.85 14.0599C248.69 16.2799 248.53 18.2499 248.37 19.9699C248.21 21.6899 247.92 23.1899 247.5 24.4699C247.08 25.7299 246.45 26.7899 245.61 27.6499C244.79 28.4899 243.64 29.1499 242.16 29.6299C241.94 29.7099 241.75 29.7299 241.59 29.6899C241.45 29.6499 241.33 29.5099 241.23 29.2699L240.21 27.0199C240.13 26.8399 240.11 26.6699 240.15 26.5099C240.19 26.3499 240.32 26.2199 240.54 26.1199C241.32 25.7399 241.94 25.2899 242.4 24.7699C242.88 24.2499 243.25 23.5599 243.51 22.6999C243.79 21.8399 243.99 20.7599 244.11 19.4599C244.25 18.1399 244.38 16.5099 244.5 14.5699L244.77 10.0099Z" fill="black"/>
    <path d="M275.176 17.8099C275.697 17.9899 276.126 18.1999 276.466 18.4399C276.806 18.6599 277.086 18.9199 277.306 19.2199C277.526 19.5199 277.697 19.8599 277.816 20.2399C277.956 20.5999 278.087 20.9999 278.206 21.4399L280.066 28.3999C280.106 28.4999 280.106 28.6299 280.066 28.7899C280.046 28.9299 279.906 28.9999 279.646 28.9999H276.166C276.066 28.9999 275.956 28.9799 275.836 28.9399C275.716 28.8999 275.626 28.7799 275.566 28.5799L273.736 22.1299C273.576 21.6099 273.386 21.1899 273.166 20.8699C272.966 20.5299 272.716 20.2699 272.416 20.0899C272.116 19.9099 271.766 19.7899 271.366 19.7299C270.966 19.6499 270.507 19.6099 269.986 19.6099H267.526L267.556 28.5199C267.556 28.7399 267.516 28.8799 267.436 28.9399C267.356 28.9799 267.216 28.9999 267.016 28.9999H263.536C263.356 28.9999 263.216 28.9799 263.116 28.9399C263.036 28.8799 262.996 28.7399 262.996 28.5199V8.47992C262.996 8.25992 263.036 8.12992 263.116 8.08992C263.216 8.02992 263.356 7.99992 263.536 7.99992H267.046C267.246 7.99992 267.386 8.02992 267.466 8.08992C267.546 8.12992 267.566 8.25992 267.526 8.47992V16.1299H269.926C270.227 16.1299 270.536 16.1099 270.856 16.0699C271.196 16.0099 271.526 15.8899 271.846 15.7099C272.167 15.5299 272.456 15.2599 272.716 14.8999C272.996 14.5399 273.216 14.0499 273.376 13.4299L274.726 8.35992C274.766 8.15992 274.846 8.03992 274.966 7.99992C275.106 7.95992 275.226 7.93992 275.326 7.93992H278.686C278.946 7.93992 279.086 8.01992 279.106 8.17992C279.146 8.31992 279.146 8.43992 279.106 8.53992L277.726 13.9099C277.326 15.6299 276.477 16.8799 275.176 17.6599V17.8099Z" fill="black"/>
    <path d="M300.311 18.4399C300.311 20.1599 300.121 21.6899 299.741 23.0299C299.381 24.3699 298.811 25.5099 298.031 26.4499C297.251 27.3899 296.271 28.1099 295.091 28.6099C293.911 29.0899 292.511 29.3299 290.891 29.3299C287.791 29.3299 285.481 28.3899 283.961 26.5099C282.461 24.6299 281.711 21.9699 281.711 18.5299C281.711 16.8499 281.921 15.3399 282.341 13.9999C282.781 12.6399 283.401 11.4999 284.201 10.5799C285.001 9.63992 285.971 8.91992 287.111 8.41992C288.251 7.91992 289.541 7.66992 290.981 7.66992C292.541 7.66992 293.901 7.91992 295.061 8.41992C296.241 8.91992 297.211 9.63992 297.971 10.5799C298.751 11.4999 299.331 12.6299 299.711 13.9699C300.111 15.2899 300.311 16.7799 300.311 18.4399ZM295.541 18.5299C295.541 17.6299 295.471 16.7699 295.331 15.9499C295.211 15.1299 294.981 14.4099 294.641 13.7899C294.301 13.1699 293.841 12.6799 293.261 12.3199C292.681 11.9399 291.931 11.7499 291.011 11.7499C290.251 11.7499 289.581 11.9299 289.001 12.2899C288.441 12.6299 287.971 13.0999 287.591 13.6999C287.211 14.2999 286.931 14.9999 286.751 15.7999C286.571 16.5999 286.481 17.4499 286.481 18.3499C286.481 19.4099 286.551 20.3599 286.691 21.1999C286.851 22.0399 287.101 22.7599 287.441 23.3599C287.801 23.9599 288.271 24.4199 288.851 24.7399C289.431 25.0599 290.161 25.2199 291.041 25.2199C291.901 25.2199 292.621 25.0399 293.201 24.6799C293.781 24.2999 294.241 23.8099 294.581 23.2099C294.921 22.5899 295.161 21.8799 295.301 21.0799C295.461 20.2599 295.541 19.4099 295.541 18.5299Z" fill="black"/>
    <path d="M316.615 17.5099C317.175 17.7299 317.655 18.0299 318.055 18.4099C318.475 18.7699 318.815 19.1799 319.075 19.6399C319.335 20.0799 319.525 20.5599 319.645 21.0799C319.765 21.5999 319.825 22.1099 319.825 22.6099C319.825 23.5699 319.635 24.4399 319.255 25.2199C318.895 25.9999 318.385 26.6699 317.725 27.2299C317.085 27.7899 316.325 28.2299 315.445 28.5499C314.585 28.8499 313.655 28.9999 312.655 28.9999H305.125C304.405 28.9999 303.925 28.8599 303.685 28.5799C303.445 28.2799 303.325 27.8099 303.325 27.1699V9.82992C303.325 9.18992 303.445 8.71992 303.685 8.41992C303.925 8.11992 304.405 7.96992 305.125 7.96992H312.475C313.375 7.96992 314.215 8.06992 314.995 8.26992C315.795 8.46992 316.485 8.78992 317.065 9.22992C317.645 9.64992 318.095 10.1999 318.415 10.8799C318.755 11.5399 318.925 12.3399 318.925 13.2799C318.925 14.1199 318.705 14.9099 318.265 15.6499C317.845 16.3699 317.295 16.9199 316.615 17.2999V17.5099ZM315.115 22.3099C315.115 21.5099 314.865 20.8599 314.365 20.3599C313.885 19.8599 313.165 19.6099 312.205 19.6099H307.885V24.9799H312.205C312.765 24.9799 313.235 24.8999 313.615 24.7399C313.995 24.5599 314.295 24.3399 314.515 24.0799C314.735 23.8199 314.885 23.5299 314.965 23.2099C315.065 22.8899 315.115 22.5899 315.115 22.3099ZM307.885 15.9499H311.965C312.205 15.9499 312.455 15.9199 312.715 15.8599C312.995 15.7999 313.245 15.6999 313.465 15.5599C313.685 15.3999 313.865 15.1899 314.005 14.9299C314.145 14.6499 314.215 14.2999 314.215 13.8799C314.215 13.2799 314.025 12.8099 313.645 12.4699C313.265 12.1299 312.755 11.9599 312.115 11.9599H307.885V15.9499Z" fill="black"/>
    <path d="M55.664 48.9999V37.7999H56.496V42.9839H63.664V37.7999H64.496V48.9999H63.664V43.7519H56.496V48.9999H55.664Z" fill="black"/>
    <path d="M71.2443 49.1919C70.3483 49.1919 69.5962 48.9679 68.9882 48.5199C68.3909 48.0613 68.0922 47.4213 68.0922 46.5999C68.0922 45.7679 68.4176 45.1173 69.0682 44.6479C69.7189 44.1786 70.5829 43.9439 71.6602 43.9439C72.5776 43.9439 73.4789 44.0613 74.3643 44.2959V43.9439C74.3643 43.1333 74.1296 42.5146 73.6602 42.0879C73.1909 41.6613 72.5296 41.4479 71.6763 41.4479C70.8229 41.4479 69.9696 41.6666 69.1163 42.1039L68.8282 41.4159C69.8416 40.9466 70.8069 40.7119 71.7243 40.7119C72.8442 40.7119 73.7029 41.0106 74.3002 41.6079C74.8549 42.1626 75.1322 42.9306 75.1322 43.9119V48.9999H74.3643V47.6399C73.6283 48.6746 72.5883 49.1919 71.2443 49.1919ZM71.2922 48.4559C72.1456 48.4559 72.8709 48.2213 73.4683 47.7519C74.0763 47.2719 74.3803 46.6693 74.3803 45.9439V45.0159C73.4202 44.7706 72.4976 44.6479 71.6122 44.6479C70.7589 44.6479 70.0976 44.8239 69.6283 45.1759C69.1696 45.5173 68.9402 45.9866 68.9402 46.5839C68.9402 47.1706 69.1536 47.6293 69.5802 47.9599C70.0069 48.2906 70.5776 48.4559 71.2922 48.4559Z" fill="black"/>
    <path d="M81.1197 48.9999V41.5439H78.0637V40.8399H84.9597V41.5439H81.9037V48.9999H81.1197Z" fill="black"/>
    <path d="M87.3951 48.9999L89.9711 45.7519C89.2885 45.6239 88.7231 45.3413 88.2751 44.9039C87.8378 44.4666 87.6191 43.9226 87.6191 43.2719C87.6191 42.5466 87.8858 41.9599 88.4191 41.5119C88.9525 41.0639 89.6831 40.8399 90.6111 40.8399H94.2591V48.9999H93.4751V45.8639H90.7871L88.3551 48.9999H87.3951ZM90.7551 45.1599H93.4751V41.5439H90.7231C90.0191 41.5439 89.4645 41.7039 89.0591 42.0239C88.6645 42.3439 88.4671 42.7759 88.4671 43.3199C88.4671 43.8746 88.6805 44.3226 89.1071 44.6639C89.5338 44.9946 90.0831 45.1599 90.7551 45.1599Z" fill="black"/>
    <path d="M97.2866 48.9999L100.743 44.3759L97.4946 40.8399H98.4866L103.159 46.0399V40.8399H103.943V46.0399L108.615 40.8399H109.607L106.343 44.3759L109.815 48.9999H108.855L105.847 44.9359L103.943 46.9999V48.9999H103.159V46.9999L101.255 44.9199L98.2466 48.9999H97.2866Z" fill="black"/>
    <path d="M112.838 48.9999V40.8399H113.622V44.4719H119.046V40.8399H119.83V48.9999H119.046V45.1759H113.622V48.9999H112.838Z" fill="black"/>
    <path d="M123.927 48.9999V40.8399H124.711V43.9759H127.143C128.049 43.9759 128.796 44.1786 129.383 44.5839C129.969 44.9786 130.263 45.5759 130.263 46.3759C130.263 47.1653 129.991 47.7999 129.447 48.2799C128.903 48.7599 128.183 48.9999 127.287 48.9999H123.927ZM124.711 48.2959H127.159C127.852 48.2959 128.401 48.1306 128.807 47.7999C129.212 47.4693 129.415 47.0053 129.415 46.4079C129.415 45.8639 129.207 45.4426 128.791 45.1439C128.375 44.8346 127.809 44.6799 127.095 44.6799H124.711V48.2959ZM131.895 48.9999V40.8399H132.679V48.9999H131.895Z" fill="black"/>
    <path d="M140.221 49.1919C139.122 49.1919 138.178 48.7919 137.389 47.9919C136.61 47.1919 136.221 46.1626 136.221 44.9039C136.221 43.7093 136.589 42.7013 137.325 41.8799C138.072 41.0586 138.994 40.6479 140.093 40.6479C141.213 40.6479 142.114 41.0533 142.797 41.8639C143.49 42.6746 143.837 43.6933 143.837 44.9199C143.837 45.0479 143.832 45.1546 143.821 45.2399H137.053C137.128 46.2213 137.469 47.0053 138.077 47.5919C138.696 48.1679 139.421 48.4559 140.253 48.4559C141.32 48.4559 142.253 48.0293 143.053 47.1759L143.597 47.6559C142.648 48.6799 141.522 49.1919 140.221 49.1919ZM137.053 44.5359H142.989C142.925 43.6399 142.642 42.8879 142.141 42.2799C141.64 41.6719 140.946 41.3679 140.061 41.3679C139.261 41.3679 138.578 41.6719 138.013 42.2799C137.448 42.8773 137.128 43.6293 137.053 44.5359Z" fill="black"/>
    <path d="M153.162 48.9999V40.8399H159.946V48.9999H159.162V41.5439H153.946V48.9999H153.162Z" fill="black"/>
    <path d="M170.655 47.9279C169.855 48.7706 168.858 49.1919 167.663 49.1919C166.469 49.1919 165.471 48.7759 164.671 47.9439C163.882 47.1013 163.487 46.0933 163.487 44.9199C163.487 43.7573 163.887 42.7546 164.687 41.9119C165.498 41.0693 166.501 40.6479 167.695 40.6479C168.89 40.6479 169.882 41.0693 170.671 41.9119C171.471 42.7439 171.871 43.7466 171.871 44.9199C171.871 46.0826 171.466 47.0853 170.655 47.9279ZM167.695 48.4559C168.602 48.4559 169.381 48.1093 170.031 47.4159C170.693 46.7226 171.023 45.8906 171.023 44.9199C171.023 43.9386 170.693 43.1066 170.031 42.4239C169.381 41.7306 168.591 41.3839 167.663 41.3839C166.746 41.3839 165.962 41.7306 165.311 42.4239C164.661 43.1066 164.335 43.9386 164.335 44.9199C164.335 45.9013 164.661 46.7386 165.311 47.4319C165.962 48.1146 166.757 48.4559 167.695 48.4559Z" fill="black"/>
    <path d="M177.45 48.9999V41.5439H174.394V40.8399H181.29V41.5439H178.234V48.9999H177.45Z" fill="black"/>
    <path d="M190.989 47.9279C190.189 48.7706 189.192 49.1919 187.997 49.1919C186.802 49.1919 185.805 48.7759 185.005 47.9439C184.216 47.1013 183.821 46.0933 183.821 44.9199C183.821 43.7573 184.221 42.7546 185.021 41.9119C185.832 41.0693 186.834 40.6479 188.029 40.6479C189.224 40.6479 190.216 41.0693 191.005 41.9119C191.805 42.7439 192.205 43.7466 192.205 44.9199C192.205 46.0826 191.8 47.0853 190.989 47.9279ZM188.029 48.4559C188.936 48.4559 189.714 48.1093 190.365 47.4159C191.026 46.7226 191.357 45.8906 191.357 44.9199C191.357 43.9386 191.026 43.1066 190.365 42.4239C189.714 41.7306 188.925 41.3839 187.997 41.3839C187.08 41.3839 186.296 41.7306 185.645 42.4239C184.994 43.1066 184.669 43.9386 184.669 44.9199C184.669 45.9013 184.994 46.7386 185.645 47.4319C186.296 48.1146 187.09 48.4559 188.029 48.4559Z" fill="black"/>
    <path d="M195.208 49.1279C194.909 49.1279 194.61 49.0853 194.311 48.9999L194.455 48.2799C194.722 48.3546 194.93 48.3919 195.079 48.3919C195.293 48.3919 195.463 48.3706 195.591 48.3279C195.73 48.2746 195.88 48.1733 196.04 48.0239C196.2 47.8746 196.327 47.6399 196.423 47.3199C196.519 46.9999 196.61 46.5839 196.695 46.0719C196.791 45.5599 196.861 44.9039 196.904 44.1039C196.946 43.3039 196.967 42.3599 196.967 41.2719V40.8399H202.52V48.9999H201.736V41.5439H197.719V41.7679C197.719 43.0906 197.677 44.2106 197.591 45.1279C197.506 46.0453 197.4 46.7653 197.271 47.2879C197.143 47.7999 196.962 48.1999 196.727 48.4879C196.493 48.7653 196.264 48.9413 196.04 49.0159C195.826 49.0906 195.549 49.1279 195.208 49.1279Z" fill="black"/>
    <path d="M206.621 48.9999V40.8399H207.405V46.0719L212.461 40.8399H213.501L209.933 44.4559L213.613 48.9999H212.621L209.389 45.0159L207.405 47.0159V48.9999H206.621Z" fill="black"/>
    <path d="M216.632 48.9999V40.8399H217.416V47.9599L222.952 40.8399H223.736V48.9999H222.952V41.8799L217.416 48.9999H216.632Z" fill="black"/>
    <path d="M233.747 48.9999V40.8399H237.475C238.275 40.8399 238.915 41.0266 239.395 41.3999C239.875 41.7626 240.115 42.2533 240.115 42.8719C240.115 43.7359 239.656 44.3599 238.739 44.7439C239.283 44.8826 239.725 45.1226 240.067 45.4639C240.408 45.8053 240.579 46.2426 240.579 46.7759C240.579 47.4479 240.312 47.9866 239.779 48.3919C239.245 48.7973 238.536 48.9999 237.651 48.9999H233.747ZM234.531 48.2959H237.555C238.237 48.2959 238.776 48.1519 239.171 47.8639C239.565 47.5653 239.763 47.1653 239.763 46.6639C239.763 46.1839 239.555 45.8106 239.139 45.5439C238.733 45.2773 238.141 45.1439 237.363 45.1439H234.531V48.2959ZM234.531 44.4879H237.363C237.949 44.4879 238.419 44.3546 238.771 44.0879C239.133 43.8106 239.315 43.4213 239.315 42.9199C239.315 42.5039 239.149 42.1733 238.819 41.9279C238.488 41.6719 238.019 41.5439 237.411 41.5439H234.531V44.4879Z" fill="black"/>
    <path d="M253.345 48.9999V38.5679H249.441V37.7999H258.081V38.5679H254.177V48.9999H253.345Z" fill="black"/>
    <path d="M268.296 49.1919C267.165 49.1919 266.243 48.8186 265.528 48.0719C264.824 47.3253 264.435 46.3866 264.36 45.2559H262.344V48.9999H261.56V40.8399H262.344V44.5359H264.36C264.445 43.4373 264.845 42.5146 265.56 41.7679C266.285 41.0213 267.208 40.6479 268.328 40.6479C269.501 40.6479 270.451 41.0639 271.176 41.8959C271.901 42.7173 272.264 43.7253 272.264 44.9199C272.264 46.1039 271.896 47.1119 271.16 47.9439C270.435 48.7759 269.48 49.1919 268.296 49.1919ZM268.328 48.4559C269.267 48.4559 270.013 48.1199 270.568 47.4479C271.133 46.7759 271.416 45.9333 271.416 44.9199C271.416 43.9173 271.128 43.0799 270.552 42.4079C269.976 41.7253 269.224 41.3839 268.296 41.3839C267.357 41.3839 266.605 41.7199 266.04 42.3919C265.485 43.0639 265.208 43.9066 265.208 44.9199C265.208 45.9226 265.496 46.7653 266.072 47.4479C266.648 48.1199 267.4 48.4559 268.328 48.4559Z" fill="black"/>
    <path d="M275.805 48.9999V40.8399H276.509L279.837 45.5279L283.165 40.8399H283.869V48.9999H283.085V42.1999L279.805 46.7119L276.557 42.1999V48.9999H275.805Z" fill="black"/>
    <path d="M291.412 49.1919C290.313 49.1919 289.369 48.7919 288.58 47.9919C287.801 47.1919 287.412 46.1626 287.412 44.9039C287.412 43.7093 287.78 42.7013 288.516 41.8799C289.262 41.0586 290.185 40.6479 291.284 40.6479C292.404 40.6479 293.305 41.0533 293.988 41.8639C294.681 42.6746 295.028 43.6933 295.028 44.9199C295.028 45.0479 295.022 45.1546 295.012 45.2399H288.244C288.318 46.2213 288.66 47.0053 289.268 47.5919C289.886 48.1679 290.612 48.4559 291.444 48.4559C292.51 48.4559 293.444 48.0293 294.244 47.1759L294.788 47.6559C293.838 48.6799 292.713 49.1919 291.412 49.1919ZM288.244 44.5359H294.18C294.116 43.6399 293.833 42.8879 293.332 42.2799C292.83 41.6719 292.137 41.3679 291.252 41.3679C290.452 41.3679 289.769 41.6719 289.204 42.2799C288.638 42.8773 288.318 43.6293 288.244 44.5359Z" fill="black"/>
    <path d="M298.436 48.9999V40.8399H299.219V44.4719H304.643V40.8399H305.427V48.9999H304.643V45.1759H299.219V48.9999H298.436Z" fill="black"/>
    <path d="M309.524 48.9999V40.8399H310.308V47.9599L315.844 40.8399H316.628V48.9999H315.844V41.8799L310.308 48.9999H309.524Z" fill="black"/>
</svg>