<svg width="16" height="16" viewBox="0 0 16 16" fill="none" xmlns="http://www.w3.org/2000/svg">
<path d="M12.1643 10.5843C11.6416 10.0683 10.989 10.0683 10.4696 10.5843C10.0734 10.9772 9.67723 11.3701 9.28768 11.7696C9.18114 11.8795 9.09124 11.9028 8.9614 11.8295C8.70503 11.6897 8.43201 11.5765 8.18564 11.4233C7.03698 10.7008 6.07477 9.77193 5.22243 8.72649C4.79959 8.2071 4.42336 7.65108 4.16033 7.02514C4.10706 6.89862 4.11705 6.81539 4.22026 6.71217C4.61647 6.32929 5.00268 5.93641 5.39223 5.54354C5.93493 4.99751 5.93493 4.35826 5.3889 3.8089C5.07926 3.49593 4.76962 3.18962 4.45998 2.87665C4.14036 2.55703 3.82406 2.23407 3.5011 1.91777C2.97838 1.40837 2.32581 1.40837 1.80641 1.9211C1.40688 2.31398 1.02399 2.71684 0.617799 3.10305C0.241571 3.4593 0.0517927 3.89546 0.0118394 4.40487C-0.0514202 5.2339 0.151676 6.01632 0.438009 6.77876C1.02399 8.35692 1.91628 9.75862 2.99835 11.0438C4.45998 12.7818 6.20461 14.1568 8.24557 15.149C9.16449 15.5951 10.1167 15.9381 11.1522 15.9947C11.8647 16.0346 12.484 15.8548 12.98 15.2988C13.3196 14.9193 13.7025 14.573 14.0621 14.2101C14.5948 13.6707 14.5982 13.0181 14.0688 12.4854C13.4362 11.8495 12.8003 11.2169 12.1643 10.5843Z" fill="#1A62A4"/>
</svg>
