<svg width="74" height="81" viewBox="0 0 74 81" fill="none" xmlns="http://www.w3.org/2000/svg">
<path d="M33.626 1.1294C33.1452 0.857681 32.5352 1.02719 32.2634 1.50801C31.9917 1.98883 32.1612 2.59888 32.642 2.8706L33.626 1.1294ZM32.4818 75.1926C32.3818 75.7357 32.741 76.2571 33.2841 76.3572L42.1352 77.9875C42.6784 78.0876 43.1998 77.7284 43.2998 77.1852C43.3999 76.6421 43.0407 76.1207 42.4975 76.0206L34.6299 74.5714L36.0791 66.7038C36.1792 66.1606 35.82 65.6392 35.2768 65.5392C34.7337 65.4391 34.2122 65.7983 34.1122 66.3415L32.4818 75.1926ZM32.642 2.8706C45.7737 10.2916 53.1712 23.1466 53.638 36.6557C54.1044 50.1524 47.6525 64.3857 32.898 74.5502L34.0326 76.1972C49.3128 65.6706 56.1283 50.8083 55.6368 36.5866C55.1458 22.3772 47.3604 8.89095 33.626 1.1294L32.642 2.8706Z" fill="#1A62A4"/>
</svg>
